<?xml version="1.0" standalone="no"?><!DOCTYPE svg PUBLIC "-//W3C//DTD SVG 1.1//EN" "http://www.w3.org/Graphics/SVG/1.1/DTD/svg11.dtd"><svg t="1650850638380" class="icon" viewBox="0 0 1024 1024" version="1.1" xmlns="http://www.w3.org/2000/svg" p-id="40824" width="200" height="200" xmlns:xlink="http://www.w3.org/1999/xlink"><defs><style type="text/css">@font-face { font-family: feedback-iconfont; src: url("//at.alicdn.com/t/font_1031158_u69w8yhxdu.woff2?t=1630033759944") format("woff2"), url("//at.alicdn.com/t/font_1031158_u69w8yhxdu.woff?t=1630033759944") format("woff"), url("//at.alicdn.com/t/font_1031158_u69w8yhxdu.ttf?t=1630033759944") format("truetype"); }
</style></defs><path d="M192 384h640a42.666667 42.666667 0 0 1 42.666667 42.666667v362.666666a42.666667 42.666667 0 0 1-42.666667 42.666667H192v106.666667a21.333333 21.333333 0 0 0 21.333333 21.333333h725.333334a21.333333 21.333333 0 0 0 21.333333-21.333333V308.821333L949.909333 298.666667h-126.528A98.048 98.048 0 0 1 725.333333 200.618667V72.661333L716.714667 64H213.333333a21.333333 21.333333 0 0 0-21.333333 21.333333v298.666667zM128 832H42.666667a42.666667 42.666667 0 0 1-42.666667-42.666667V426.666667a42.666667 42.666667 0 0 1 42.666667-42.666667h85.333333V85.333333a85.333333 85.333333 0 0 1 85.333333-85.333333h530.026667L1024 282.453333V938.666667a85.333333 85.333333 0 0 1-85.333333 85.333333H213.333333a85.333333 85.333333 0 0 1-85.333333-85.333333v-106.666667z m91.989333-359.509333v40.704h140.16L261.845333 746.666667h47.616l96-238.08v-36.096h-185.472z m221.952 0v38.4h147.072l-158.592 200.448V746.666667h226.176v-38.4H489.173333l158.208-200.064v-35.712h-205.44z" fill="#57C1FF" p-id="40825"></path></svg>