<?xml version="1.0" standalone="no"?><!DOCTYPE svg PUBLIC "-//W3C//DTD SVG 1.1//EN" "http://www.w3.org/Graphics/SVG/1.1/DTD/svg11.dtd"><svg t="1650850892160" class="icon" viewBox="0 0 1024 1024" version="1.1" xmlns="http://www.w3.org/2000/svg" p-id="41166" width="200" height="200" xmlns:xlink="http://www.w3.org/1999/xlink"><defs><style type="text/css">@font-face { font-family: feedback-iconfont; src: url("//at.alicdn.com/t/font_1031158_u69w8yhxdu.woff2?t=1630033759944") format("woff2"), url("//at.alicdn.com/t/font_1031158_u69w8yhxdu.woff?t=1630033759944") format("woff"), url("//at.alicdn.com/t/font_1031158_u69w8yhxdu.ttf?t=1630033759944") format("truetype"); }
</style></defs><path d="M192 384h640a42.666667 42.666667 0 0 1 42.666667 42.666667v362.666666a42.666667 42.666667 0 0 1-42.666667 42.666667H192v106.666667a21.333333 21.333333 0 0 0 21.333333 21.333333h725.333334a21.333333 21.333333 0 0 0 21.333333-21.333333V308.821333L949.909333 298.666667h-126.528A98.048 98.048 0 0 1 725.333333 200.618667V72.661333L716.714667 64H213.333333a21.333333 21.333333 0 0 0-21.333333 21.333333v298.666667zM128 832H42.666667a42.666667 42.666667 0 0 1-42.666667-42.666667V426.666667a42.666667 42.666667 0 0 1 42.666667-42.666667h85.333333V85.333333a85.333333 85.333333 0 0 1 85.333333-85.333333h530.026667L1024 282.453333V938.666667a85.333333 85.333333 0 0 1-85.333333 85.333333H213.333333a85.333333 85.333333 0 0 1-85.333333-85.333333v-106.666667zM80.853333 472.490667v38.4h85.056V746.666667H208.426667V510.890667h85.034666v-38.4H80.853333z m317.269334 0L298.922667 746.666667h45.397333l23.637333-68.736h108.650667L500.224 746.666667h45.44l-99.2-274.176h-48.341333z m-17.450667 168.576l41.066667-120.192h1.450666l40.704 120.192h-83.221333z m190.421333-168.576V746.666667h42.517334v-111.744h67.221333c14.549333 0 25.813333 3.072 33.450667 9.984 7.253333 6.528 11.626667 17.28 13.077333 32.256l3.264 33.792c1.450667 15.36 5.098667 27.264 11.264 35.712h46.144c-8.704-9.984-14.165333-23.424-15.616-40.32l-4.352-44.16c-2.922667-26.88-15.637333-42.624-38.165333-48v-0.768a56.512 56.512 0 0 0 33.066666-24.192c7.253333-11.136 10.901333-23.808 10.901334-38.016 0-26.112-8.362667-46.08-24.341334-59.904-15.274667-12.672-36.352-18.816-62.869333-18.816H571.093333z m42.517334 38.4h67.221333c17.450667 0 30.165333 3.072 38.165333 9.984 8 6.528 11.989333 17.28 11.989334 32.256 0 13.824-3.989333 24.576-11.989334 32.256-8.725333 7.296-21.44 11.136-38.165333 11.136h-67.221333v-85.632z" fill="#BA4CD7" p-id="41167"></path></svg>