<?xml version="1.0" standalone="no"?><!DOCTYPE svg PUBLIC "-//W3C//DTD SVG 1.1//EN" "http://www.w3.org/Graphics/SVG/1.1/DTD/svg11.dtd"><svg t="1648199339714" class="icon" viewBox="0 0 1024 1024" version="1.1" xmlns="http://www.w3.org/2000/svg" p-id="1481" width="24" height="24" xmlns:xlink="http://www.w3.org/1999/xlink"><defs><style type="text/css">@font-face { font-family: feedback-iconfont; src: url("//at.alicdn.com/t/font_1031158_u69w8yhxdu.woff2?t=1630033759944") format("woff2"), url("//at.alicdn.com/t/font_1031158_u69w8yhxdu.woff?t=1630033759944") format("woff"), url("//at.alicdn.com/t/font_1031158_u69w8yhxdu.ttf?t=1630033759944") format("truetype"); }
</style></defs><path d="M535.601129 0h68.997178v95.247413h349.200376c19.747883 0.842897 41.301976 0 58.400753 12.041392 12.041392 17.580433 10.596425 39.977422 12.041392 60.206962q-0.963311 310.186265 0 619.890875c0 34.67921 3.130762 70.080903-3.97366 104.158043-4.575729 24.805268-33.715898 25.407338-53.10254 26.250235H605.32079V1023.518344h-72.248353C355.100659 991.006585 177.490122 960.541863 0 928.752587V95.367827C178.573848 63.578551 357.147695 32.270931 535.601129 0z" fill="#207245" p-id="1482"></path><path d="M604.598307 131.010348h383.879586v750.058326H604.598307v-71.405457h93.079962v-83.326434h-93.079962v-48.165569h93.079962v-82.844779h-93.079962v-47.5635h93.079962v-83.446848h-93.079962v-48.16557h93.079962v-82.724365h-93.079962v-48.165569h93.079962v-82.844779h-93.079962z" fill="#FFFFFF" p-id="1483"></path><path d="M744.278457 202.415804h162.799624v83.326435H744.278457z" fill="#207245" p-id="1484"></path><path d="M344.504233 314.039511q39.616181-2.889934 79.111948-4.936971-46.600188 97.655691-93.802446 195.190969c31.90969 66.588899 64.662277 132.455315 96.331138 199.52587l-84.289746-5.418626c-19.747883-49.73095-43.830668-97.655691-58.039511-149.674507-15.774224 48.165569-38.412041 94.043274-56.594544 141.365946-25.407338 0-50.935089-1.444967-76.342427-2.528692 29.862653-60.206961 58.761994-120.413923 89.587959-179.777987-26.250235-61.290687-54.908749-121.377234-81.881468-182.427093l76.703669-4.455316c17.339605 46.600188 36.124177 92.477893 50.573848 140.282221 16.135466-50.694262 39.254939-98.257761 58.64158-147.145814z" fill="#FFFFFF" p-id="1485"></path><path d="M744.278457 333.426152h162.799624v83.326435H744.278457zM744.278457 464.316087h162.799624v83.446848H744.278457zM744.278457 595.326435h162.799624v83.326434H744.278457zM744.278457 726.336783h162.799624v83.326434H744.278457z" fill="#207245" p-id="1486"></path></svg>